<svg width="56" height="42" viewBox="0 0 56 42" fill="none" xmlns="http://www.w3.org/2000/svg">
<path d="M2.176 41.692C1.756 41.692 1.42 41.412 1.168 40.852C0.916 40.32 0.734 39.676 0.622 38.92C0.482 38.164 0.412 37.464 0.412 36.82C0.412 36.512 0.426 36.064 0.454 35.476C0.482 34.888 0.524 34.258 0.58 33.586C0.636 32.914 0.692 32.284 0.748 31.696C0.804 31.108 0.846 30.66 0.874 30.352C1.126 28.448 1.504 26.614 2.008 24.85C2.512 23.058 3.058 21.308 3.646 19.6C3.674 19.544 3.702 19.46 3.73 19.348C3.786 19.236 3.828 19.18 3.856 19.18V19.054C3.576 19.166 3.212 19.432 2.764 19.852C2.344 20.272 2.036 20.594 1.84 20.818C1.644 21.014 1.462 21.224 1.294 21.448C1.126 21.644 0.93 21.742 0.706 21.742C0.482 21.742 0.37 21.616 0.37 21.364C0.37 21.056 0.538 20.748 0.874 20.44C1.182 20.104 1.532 19.796 1.924 19.516C2.316 19.208 2.736 18.928 3.184 18.676C3.66 18.424 3.996 18.242 4.192 18.13C4.276 18.074 4.332 18.004 4.36 17.92C4.416 17.836 4.458 17.752 4.486 17.668C4.682 17.36 4.878 17.066 5.074 16.786C5.298 16.506 5.592 16.31 5.956 16.198C6.208 16.226 6.488 16.282 6.796 16.366C7.104 16.45 7.286 16.646 7.342 16.954C7.342 17.066 7.37 17.122 7.426 17.122V17.164C7.566 17.164 7.734 17.15 7.93 17.122C8.154 17.066 8.406 17.038 8.686 17.038C9.778 17.038 10.66 17.318 11.332 17.878C12.004 18.438 12.34 19.18 12.34 20.104C12.34 20.972 12.088 21.91 11.584 22.918C11.08 23.898 10.534 24.696 9.946 25.312C9.022 26.236 8.042 27.048 7.006 27.748C5.998 28.42 5.13 28.756 4.402 28.756C3.954 28.756 3.646 28.63 3.478 28.378C3.338 28.154 3.268 27.874 3.268 27.538C3.268 27.062 3.478 26.586 3.898 26.11C4.318 25.634 4.738 25.228 5.158 24.892C5.634 24.5 6.124 24.136 6.628 23.8C7.16 23.464 7.608 23.184 7.972 22.96C8.168 22.82 8.35 22.694 8.518 22.582C8.714 22.47 8.882 22.414 9.022 22.414C9.106 22.414 9.148 22.456 9.148 22.54C9.148 22.596 8.98 22.736 8.644 22.96C8.336 23.184 8.07 23.38 7.846 23.548C7.678 23.688 7.384 23.94 6.964 24.304C6.544 24.64 6.096 25.032 5.62 25.48C5.172 25.9 4.78 26.334 4.444 26.782C4.108 27.23 3.94 27.622 3.94 27.958C4.388 27.958 4.878 27.776 5.41 27.412C5.97 27.02 6.516 26.572 7.048 26.068C7.608 25.564 8.084 25.144 8.476 24.808C8.84 24.472 9.274 24.01 9.778 23.422C10.282 22.834 10.73 22.204 11.122 21.532C11.514 20.86 11.71 20.244 11.71 19.684C11.71 18.956 11.43 18.424 10.87 18.088C10.338 17.724 9.694 17.542 8.938 17.542C8.686 17.542 8.364 17.57 7.972 17.626C7.58 17.682 7.342 17.738 7.258 17.794C6.642 18.746 6.054 19.712 5.494 20.692C4.934 21.672 4.416 22.68 3.94 23.716C3.156 25.396 2.526 27.104 2.05 28.84C1.602 30.576 1.308 32.452 1.168 34.468C1.14 34.944 1.098 35.448 1.042 35.98C1.014 36.512 1.014 37.044 1.042 37.576C1.07 37.856 1.126 38.304 1.21 38.92C1.294 39.536 1.434 40.096 1.63 40.6C1.826 41.104 2.092 41.356 2.428 41.356C2.456 41.356 2.512 41.356 2.596 41.356C2.68 41.356 2.722 41.37 2.722 41.398V41.524C2.526 41.636 2.344 41.692 2.176 41.692ZM14.144 27.664C13.64 27.664 13.276 27.454 13.052 27.034C12.828 26.586 12.716 26.068 12.716 25.48C12.716 24.724 12.842 23.842 13.094 22.834C13.374 21.826 13.738 20.79 14.186 19.726C14.634 18.634 15.138 17.64 15.698 16.744C16.286 15.82 16.902 15.078 17.546 14.518C18.19 13.93 18.82 13.636 19.436 13.636C19.996 13.636 20.472 13.888 20.864 14.392C21.284 14.868 21.494 15.414 21.494 16.03C21.494 16.394 21.438 16.702 21.326 16.954C21.214 17.178 21.088 17.29 20.948 17.29C20.836 17.29 20.738 17.206 20.654 17.038C20.374 16.394 20.066 15.932 19.73 15.652C19.422 15.372 19.1 15.232 18.764 15.232C18.204 15.232 17.644 15.554 17.084 16.198C16.552 16.814 16.118 17.528 15.782 18.34C15.502 18.956 15.236 19.698 14.984 20.566C14.76 21.406 14.564 22.246 14.396 23.086C14.256 23.898 14.186 24.57 14.186 25.102C14.186 26.054 14.41 26.53 14.858 26.53C15.418 26.53 16.132 25.914 17 24.682C17.644 23.786 18.218 22.75 18.722 21.574C19.254 20.398 19.702 19.376 20.066 18.508C20.206 18.228 20.36 18.046 20.528 17.962C20.696 17.878 20.85 17.836 20.99 17.836C21.326 17.836 21.536 17.976 21.62 18.256C21.732 18.536 21.788 18.774 21.788 18.97C21.788 19.698 21.718 20.356 21.578 20.944C21.438 21.504 21.368 22.19 21.368 23.002C21.368 23.59 21.41 24.136 21.494 24.64C21.606 25.116 21.788 25.354 22.04 25.354C22.348 25.354 22.74 24.962 23.216 24.178C23.328 23.954 23.496 23.842 23.72 23.842C23.972 23.842 24.098 23.968 24.098 24.22C24.098 24.584 23.846 24.976 23.342 25.396C22.838 25.788 22.334 25.984 21.83 25.984C21.158 25.984 20.682 25.704 20.402 25.144C19.926 24.22 19.688 23.394 19.688 22.666C19.688 21.91 19.674 21.392 19.646 21.112C19.506 21.448 19.24 21.98 18.848 22.708C18.456 23.408 17.994 24.15 17.462 24.934C16.93 25.69 16.37 26.334 15.782 26.866C15.194 27.398 14.648 27.664 14.144 27.664ZM30.1332 34.678C29.7692 34.678 29.4192 34.538 29.0832 34.258C28.7752 33.978 28.5092 33.698 28.2852 33.418C27.3892 32.382 26.6332 31.01 26.0172 29.302C25.4292 27.594 24.9812 25.718 24.6732 23.674C24.3652 21.602 24.2112 19.502 24.2112 17.374C24.2112 15.386 24.3372 13.454 24.5892 11.578C24.8692 9.702 25.2892 7.994 25.8492 6.454C26.4092 4.914 27.1092 3.682 27.9492 2.758C29.0412 1.526 30.0912 0.909998 31.0992 0.909998C31.7152 0.909998 32.2052 1.19 32.5692 1.75C32.9612 2.282 33.1572 3.136 33.1572 4.312C33.1572 5.432 32.9332 6.86 32.4852 8.596C32.0652 10.304 31.3372 12.348 30.3012 14.728C29.9372 15.512 29.5452 16.296 29.1252 17.08C28.7332 17.864 28.3132 18.69 27.8652 19.558C27.6972 19.894 27.5572 20.062 27.4452 20.062C27.3892 20.062 27.3612 20.006 27.3612 19.894C27.3612 19.67 27.4592 19.376 27.6552 19.012C30.2032 14.224 31.4772 9.464 31.4772 4.732C31.4772 2.856 31.0852 1.918 30.3012 1.918C29.7412 1.918 29.0832 2.464 28.3272 3.556C27.2912 5.096 26.5772 6.93 26.1852 9.058C25.7932 11.158 25.5972 13.286 25.5972 15.442C25.5972 17.066 25.6672 18.648 25.8072 20.188C25.9472 21.7 26.1152 23.072 26.3112 24.304C26.3952 24.836 26.5212 25.55 26.6892 26.446C26.8572 27.342 27.0812 28.28 27.3612 29.26C27.6412 30.268 27.9492 31.178 28.2852 31.99C28.6492 32.83 29.0412 33.432 29.4612 33.796C29.5732 33.88 29.6852 33.964 29.7972 34.048C29.9372 34.16 30.0912 34.23 30.2592 34.258C30.5112 34.258 30.6372 34.328 30.6372 34.468C30.6372 34.608 30.4692 34.678 30.1332 34.678ZM37.1879 34.678C36.8239 34.678 36.4739 34.538 36.1379 34.258C35.8299 33.978 35.5639 33.698 35.3399 33.418C34.4439 32.382 33.6879 31.01 33.0719 29.302C32.4839 27.594 32.0359 25.718 31.7279 23.674C31.4199 21.602 31.2659 19.502 31.2659 17.374C31.2659 15.386 31.3919 13.454 31.6439 11.578C31.9239 9.702 32.3439 7.994 32.9039 6.454C33.4639 4.914 34.1639 3.682 35.0039 2.758C36.0959 1.526 37.1459 0.909998 38.1539 0.909998C38.7699 0.909998 39.2599 1.19 39.6239 1.75C40.0159 2.282 40.2119 3.136 40.2119 4.312C40.2119 5.432 39.9879 6.86 39.5399 8.596C39.1199 10.304 38.3919 12.348 37.3559 14.728C36.9919 15.512 36.5999 16.296 36.1799 17.08C35.7879 17.864 35.3679 18.69 34.9199 19.558C34.7519 19.894 34.6119 20.062 34.4999 20.062C34.4439 20.062 34.4159 20.006 34.4159 19.894C34.4159 19.67 34.5139 19.376 34.7099 19.012C37.2579 14.224 38.5319 9.464 38.5319 4.732C38.5319 2.856 38.1399 1.918 37.3559 1.918C36.7959 1.918 36.1379 2.464 35.3819 3.556C34.3459 5.096 33.6319 6.93 33.2399 9.058C32.8479 11.158 32.6519 13.286 32.6519 15.442C32.6519 17.066 32.7219 18.648 32.8619 20.188C33.0019 21.7 33.1699 23.072 33.3659 24.304C33.4499 24.836 33.5759 25.55 33.7439 26.446C33.9119 27.342 34.1359 28.28 34.4159 29.26C34.6959 30.268 35.0039 31.178 35.3399 31.99C35.7039 32.83 36.0959 33.432 36.5159 33.796C36.6279 33.88 36.7399 33.964 36.8519 34.048C36.9919 34.16 37.1459 34.23 37.3139 34.258C37.5659 34.258 37.6919 34.328 37.6919 34.468C37.6919 34.608 37.5239 34.678 37.1879 34.678ZM42.2266 13.972C41.9746 13.972 41.7926 13.846 41.6806 13.594C41.5966 13.314 41.5546 13.118 41.5546 13.006C41.5546 12.558 41.6806 12.138 41.9326 11.746C42.2126 11.326 42.5206 11.102 42.8566 11.074H42.9826C43.3186 11.074 43.5426 11.158 43.6546 11.326C43.7946 11.466 43.8646 11.648 43.8646 11.872C43.8646 12.292 43.6826 12.754 43.3186 13.258C42.9546 13.734 42.5906 13.972 42.2266 13.972ZM40.0846 29.008C39.1326 29.008 38.4886 28.644 38.1526 27.916C37.8166 27.188 37.6486 26.348 37.6486 25.396C37.6486 24.444 37.7466 23.45 37.9426 22.414C38.1666 21.35 38.4046 20.384 38.6566 19.516C38.9366 18.648 39.1466 18.032 39.2866 17.668C39.5946 17.024 39.9026 16.478 40.2106 16.03C40.5186 15.554 40.8546 15.316 41.2186 15.316C41.4706 15.316 41.6526 15.414 41.7646 15.61C41.9046 15.778 41.9746 16.002 41.9746 16.282C41.9746 16.842 41.8206 17.416 41.5126 18.004C41.2046 18.564 40.9246 19.096 40.6726 19.6C40.1126 20.748 39.6646 21.77 39.3286 22.666C39.0206 23.562 38.8666 24.682 38.8666 26.026C38.8666 26.894 38.9506 27.524 39.1186 27.916C39.3146 28.308 39.5806 28.504 39.9166 28.504C40.3646 28.504 40.8826 28.252 41.4706 27.748C42.0586 27.216 42.6606 26.516 43.2766 25.648C43.8926 24.78 44.4386 23.842 44.9146 22.834C45.2226 22.19 45.4606 21.868 45.6286 21.868C45.7406 21.868 45.7966 21.98 45.7966 22.204C45.7966 22.512 45.6706 22.96 45.4186 23.548C45.1946 24.108 44.9146 24.682 44.5786 25.27C44.2706 25.858 43.9766 26.32 43.6966 26.656C43.2206 27.272 42.6746 27.818 42.0586 28.294C41.4426 28.77 40.7846 29.008 40.0846 29.008ZM53.6112 28.546C53.2472 28.546 52.9252 28.322 52.6452 27.874C52.3652 27.398 52.2252 26.502 52.2252 25.186C52.2252 24.15 52.3092 23.016 52.4772 21.784C52.6452 20.524 52.8272 19.278 53.0232 18.046C53.2472 16.814 53.4432 15.722 53.6112 14.77C53.7792 13.79 53.8632 13.076 53.8632 12.628C53.8632 11.844 53.6252 11.452 53.1492 11.452C52.7012 11.452 52.2392 11.676 51.7632 12.124C51.3152 12.572 50.8812 13.118 50.4612 13.762C50.0692 14.406 49.7192 15.036 49.4112 15.652C49.1312 16.24 48.9492 16.674 48.8652 16.954C48.4732 18.046 48.1932 19.138 48.0252 20.23C47.8572 21.294 47.7732 22.4 47.7732 23.548C47.7732 24.024 47.7872 24.514 47.8152 25.018C47.8712 25.522 47.9132 26.04 47.9412 26.572C47.9972 26.852 47.9132 27.202 47.6892 27.622C47.4932 28.014 47.2552 28.21 46.9752 28.21C46.7792 28.21 46.6112 28.084 46.4712 27.832C46.3312 27.58 46.2332 27.356 46.1772 27.16C46.0652 26.824 45.9812 26.474 45.9252 26.11C45.8692 25.718 45.8132 25.382 45.7572 25.102C45.5612 23.954 45.3792 22.792 45.2112 21.616C45.0432 20.412 44.8052 19.25 44.4972 18.13C44.4132 17.822 44.3012 17.5 44.1612 17.164C44.0492 16.8 43.8672 16.506 43.6152 16.282C43.5592 16.226 43.4752 16.17 43.3632 16.114C43.2512 16.03 43.1952 15.96 43.1952 15.904C43.1952 15.792 43.3492 15.736 43.6572 15.736C43.9932 15.736 44.3292 15.904 44.6652 16.24C45.0012 16.576 45.3092 17.024 45.5892 17.584C45.9252 18.284 46.2052 19.026 46.4292 19.81C46.6812 20.594 46.8772 21.224 47.0172 21.7C47.1852 20.692 47.3672 19.796 47.5632 19.012C47.7592 18.34 48.0252 17.542 48.3612 16.618C48.6972 15.666 49.1172 14.742 49.6212 13.846C50.1252 12.922 50.7272 12.166 51.4272 11.578C52.1272 10.962 52.9392 10.654 53.8632 10.654C55.2072 10.654 55.8792 11.438 55.8792 13.006C55.8792 13.818 55.7392 14.714 55.4592 15.694C55.1792 16.646 54.8712 17.528 54.5352 18.34C54.2272 19.152 54.0172 19.712 53.9052 20.02C53.7652 20.412 53.6112 20.944 53.4432 21.616C53.3032 22.288 53.1772 22.988 53.0652 23.716C52.9812 24.444 52.9392 25.116 52.9392 25.732C52.9392 26.264 52.9952 26.712 53.1072 27.076C53.2472 27.412 53.4572 27.58 53.7372 27.58C54.0172 27.58 54.2692 27.454 54.4932 27.202C54.7172 26.922 54.8992 26.67 55.0392 26.446C55.2072 26.222 55.2912 26.18 55.2912 26.32C55.3472 26.74 55.1932 27.216 54.8292 27.748C54.4932 28.28 54.0872 28.546 53.6112 28.546Z" fill="#F9681F"/>
</svg>
